<svg width="50" height="50" viewBox="0 0 26 26" fill="none" xmlns="http://www.w3.org/2000/svg">
<path fill-rule="evenodd" clip-rule="evenodd" d="M22.0343 8.29756C22.7602 8.85981 23.2054 9.69506 23.2812 10.604L23.2921 10.8217V19.6065C23.2921 21.8706 21.5035 23.7123 19.2621 23.8315H17.1062C16.076 23.8109 15.2429 23.0092 15.1671 22.0017L15.1562 21.849V18.7517C15.1562 18.4148 14.906 18.1342 14.5712 18.079L14.4737 18.0681H11.5802C11.2346 18.079 10.9529 18.3281 10.9096 18.6531L10.8987 18.7517V21.8392C10.8987 21.9031 10.8868 21.979 10.8771 22.0331L10.8662 22.0559L10.8543 22.1306C10.7254 23.0526 9.96707 23.7556 9.02457 23.8217L8.88374 23.8315H6.94457C4.68041 23.8315 2.82791 22.0559 2.70874 19.8231V10.8217C2.71849 9.89981 3.12041 9.04398 3.79207 8.44815L10.5412 3.02065C11.9171 1.92756 13.8454 1.88423 15.2635 2.89065L15.4379 3.02065L22.0343 8.29756ZM21.7743 19.7798L21.7862 19.6065V10.8315C21.7743 10.3667 21.5804 9.93231 21.2446 9.6084L21.1037 9.48815L14.4954 4.20148C13.6721 3.54065 12.5021 3.50923 11.6354 4.08231L11.4718 4.20148L4.88516 9.5109C4.50707 9.79148 4.27957 10.214 4.22541 10.6581L4.21349 10.8315V19.6065C4.21349 21.0473 5.34016 22.2281 6.77124 22.3148H8.88374C9.12207 22.3148 9.32791 22.1534 9.35932 21.9259L9.38207 21.7309L9.39291 21.6756V18.7517C9.39291 17.5926 10.2812 16.6501 11.4187 16.5623H14.4737C15.6318 16.5623 16.5743 17.4517 16.6621 18.5892V21.849C16.6621 22.0765 16.8246 22.2726 17.0412 22.3148H19.0552C20.5068 22.3148 21.6877 21.2001 21.7743 19.7798Z" fill="#440000"/>
</svg>
