<svg width="50" height="50" viewBox="0 0 26 26" fill="none" xmlns="http://www.w3.org/2000/svg">
<path fill-rule="evenodd" clip-rule="evenodd" d="M8.68123 2.16663H5.39034C3.60842 2.16663 2.16663 3.62094 2.16663 5.41177V8.73123C2.16663 10.5213 3.60873 11.9764 5.39034 11.9764H8.68123C10.4628 11.9764 11.9049 10.5213 11.9049 8.73123V5.41177C11.9049 3.62094 10.4632 2.16663 8.68123 2.16663ZM5.39034 3.67825H8.68123C9.62536 3.67825 10.3933 4.45288 10.3933 5.41177V8.73123C10.3933 9.68948 9.62496 10.4647 8.68123 10.4647H5.39034C4.44662 10.4647 3.67825 9.68948 3.67825 8.73123V5.41177C3.67825 4.45288 4.44621 3.67825 5.39034 3.67825ZM20.6106 2.16663H17.3187C15.5368 2.16663 14.095 3.62094 14.095 5.41177V8.73123C14.095 10.5213 15.5371 11.9764 17.3187 11.9764H20.6106C22.3914 11.9764 23.8333 10.5211 23.8333 8.73123V5.41177C23.8333 3.62115 22.3917 2.16663 20.6106 2.16663ZM17.3187 3.67825H20.6106C21.5538 3.67825 22.3217 4.45299 22.3217 5.41177V8.73123C22.3217 9.68937 21.5534 10.4647 20.6106 10.4647H17.3187C16.375 10.4647 15.6066 9.68948 15.6066 8.73123V5.41177C15.6066 4.45288 16.3746 3.67825 17.3187 3.67825ZM5.39034 14.0235H8.68123C10.4634 14.0235 11.9049 15.4781 11.9049 17.2697V20.5881C11.9049 22.379 10.4632 23.8333 8.68123 23.8333H5.39034C3.60842 23.8333 2.16663 22.379 2.16663 20.5881V17.2697C2.16663 15.4781 3.60821 14.0235 5.39034 14.0235ZM8.68123 15.5352H5.39034C4.4461 15.5352 3.67825 16.3099 3.67825 17.2697V20.5881C3.67825 21.547 4.44621 22.3217 5.39034 22.3217H8.68123C9.62536 22.3217 10.3933 21.547 10.3933 20.5881V17.2697C10.3933 16.3099 9.62547 15.5352 8.68123 15.5352ZM20.6106 14.0235H17.3187C15.5366 14.0235 14.095 15.4781 14.095 17.2697V20.5881C14.095 22.379 15.5368 23.8333 17.3187 23.8333H20.6106C22.3917 23.8333 23.8333 22.3788 23.8333 20.5881V17.2697C23.8333 15.4783 22.3919 14.0235 20.6106 14.0235ZM17.3187 15.5352H20.6106C21.5539 15.5352 22.3217 16.31 22.3217 17.2697V20.5881C22.3217 21.5469 21.5538 22.3217 20.6106 22.3217H17.3187C16.3746 22.3217 15.6066 21.547 15.6066 20.5881V17.2697C15.6066 16.3099 16.3744 15.5352 17.3187 15.5352Z" fill="#440000"/>
</svg>
