<svg width="50" height="50" viewBox="0 0 26 26" fill="none" xmlns="http://www.w3.org/2000/svg">
<path fill-rule="evenodd" clip-rule="evenodd" d="M13.0047 2.16663C9.82617 2.16663 7.24946 4.75432 7.24946 7.9464C7.24946 11.1385 9.82617 13.7262 13.0047 13.7262C16.1832 13.7262 18.7599 11.1385 18.7599 7.9464C18.7599 4.75432 16.1832 2.16663 13.0047 2.16663ZM13.0047 3.73493C15.3207 3.73493 17.1983 5.62047 17.1983 7.9464C17.1983 10.2723 15.3207 12.1579 13.0047 12.1579C10.6886 12.1579 8.81111 10.2723 8.81111 7.9464C8.81111 5.62047 10.6886 3.73493 13.0047 3.73493ZM10.6493 16.0559C9.80673 16.1144 8.9551 16.2347 8.11507 16.4147C6.49373 16.7487 5.19663 17.416 4.64455 18.5248C4.43632 18.9585 4.33163 19.4228 4.3334 19.8929C4.33277 20.3596 4.43661 20.8245 4.63738 21.2498C5.16748 22.346 6.31349 22.9663 7.86097 23.3101L8.13818 23.368C8.9554 23.5523 9.80729 23.6765 10.6649 23.7348C10.7379 23.7562 10.912 23.7761 11.102 23.7858L11.2583 23.7916C11.3386 23.7935 11.4298 23.794 11.5657 23.794C12.7984 23.8618 14.0762 23.842 15.3482 23.7337C16.026 23.6874 16.7084 23.5987 17.3851 23.4688L17.8914 23.3637C19.5624 23.0341 20.8137 22.4072 21.3618 21.2511C21.7683 20.3927 21.7683 19.3967 21.362 18.5388C20.8152 17.3856 19.5799 16.7639 17.8787 16.4134C17.2112 16.2709 16.533 16.1655 15.8499 16.0982L15.3506 16.0559C13.7865 15.9179 12.2133 15.9179 10.6493 16.0559ZM15.2139 17.6182L15.2276 17.6193C16.0116 17.6745 16.7907 17.7845 17.5594 17.9486C18.8231 18.2089 19.6806 18.6405 19.9519 19.2126C20.1562 19.6441 20.1562 20.1454 19.9517 20.5772C19.6982 21.1118 18.928 21.5248 17.8149 21.7773L17.5712 21.8289C16.7874 22.0038 16.0108 22.1165 15.2291 22.1701C14.0161 22.2732 12.8104 22.2918 11.6077 22.2268L11.1813 22.2195C11.0629 22.2134 10.9632 22.202 10.8707 22.1835C10.1387 22.1282 9.47993 22.0408 8.84033 21.914L8.45844 21.8331C7.19089 21.5847 6.32579 21.1513 6.0453 20.5713C5.94715 20.3633 5.89473 20.1286 5.89504 19.891C5.89416 19.6547 5.9459 19.4252 6.04632 19.216C6.31905 18.6684 7.23584 18.1968 8.43493 17.9497C9.20917 17.7838 9.98796 17.6739 10.7716 17.6193C12.2591 17.4883 13.7407 17.4883 15.2139 17.6182Z" fill="#440000"/>
</svg>
