<svg width="50" height="50" viewBox="0 0 26 26" fill="none" xmlns="http://www.w3.org/2000/svg">
<path fill-rule="evenodd" clip-rule="evenodd" d="M12.5791 2.16663C6.82846 2.16663 2.16663 6.7255 2.16663 12.3492C2.16663 17.9728 6.82846 22.5317 12.5791 22.5317C15.0387 22.5317 17.299 21.6978 19.0807 20.3033L22.4651 23.6043L22.5551 23.6801C22.8694 23.9075 23.3148 23.8817 23.5992 23.6029C23.9119 23.2962 23.9113 22.7997 23.5977 22.4939L20.2531 19.2316C21.9536 17.4193 22.9916 15.0028 22.9916 12.3492C22.9916 6.7255 18.3298 2.16663 12.5791 2.16663ZM12.5791 3.73501C17.444 3.73501 21.3878 7.5917 21.3878 12.3492C21.3878 17.1066 17.444 20.9633 12.5791 20.9633C7.71422 20.9633 3.77043 17.1066 3.77043 12.3492C3.77043 7.5917 7.71422 3.73501 12.5791 3.73501Z" fill="#440000"/>
</svg>
