<svg width="53" height="53" viewBox="0 0 53 53" fill="none" xmlns="http://www.w3.org/2000/svg">
<g clip-path="url(#clip0)">
<path d="M7.9368 15.4145L2.49373 20.8575L8.91844 27.2822L14.2433 21.9573L7.9368 15.4145Z" fill="#C3FB3A"/>
<path d="M4.90078 18.4504L11.2073 24.9933L14.2433 21.9573L7.93679 15.4145L4.90078 18.4504Z" fill="#6FCF97"/>
<path d="M9.65746 13.6938L16.2003 20.0003L20.0002 16.2004L13.6936 9.65754L9.65746 13.6938Z" fill="#FF5023"/>
<path d="M21.9572 14.2433L27.3445 8.85614L20.9199 2.43142L15.4144 7.93681L21.9572 14.2433Z" fill="#C3FB3A"/>
<path d="M27.3442 8.85651L20.9198 2.43217L19.416 3.93598L25.8403 10.3603L27.3442 8.85651Z" fill="#6FCF97"/>
<path d="M6.84506 2.55221L8.30919 1.08808L51.722 42.9329C52.3824 43.57 52.3918 44.6248 51.743 45.2736L51.0305 45.9861C50.3816 46.635 49.3268 46.6255 48.6898 45.9651L6.84506 2.55221Z" fill="#FF5023"/>
<path d="M50.7668 46.2003C50.86 46.1393 50.9485 46.0681 51.0305 45.9861L51.743 45.2736C52.3918 44.6248 52.3824 43.57 51.722 42.9329L8.30919 1.08808L7.11885 2.27841L50.5316 44.1233C51.1086 44.6798 51.1886 45.5553 50.7668 46.2003Z" fill="#D80029"/>
<path d="M46.4781 37.8742L43.6312 40.7211L45.7159 42.8822L48.6392 39.9589L46.4781 37.8742Z" fill="#C3FB3A"/>
<path d="M1.08797 8.30925L2.5521 6.84512L45.9649 48.6899C46.6253 49.327 46.6347 50.3818 45.9859 51.0306L45.2734 51.7431C44.6246 52.392 43.5697 52.3824 42.9327 51.7221L1.08797 8.30925Z" fill="#FF5023"/>
<path d="M40.721 43.6311L37.874 46.4781L39.9588 48.6392L42.8821 45.7159L40.721 43.6311Z" fill="#C3FB3A"/>
<path d="M36.0553 44.587L38.8297 41.8125L30.115 33.4124L27.6553 35.8722L36.0553 44.587Z" fill="#C3FB3A"/>
<path d="M35.872 27.6555L33.4125 30.1151L41.8125 38.8299L44.5869 36.0555L35.872 27.6555Z" fill="#C3FB3A"/>
<path d="M47.4511 41.1469L48.6392 39.9589L46.4781 37.8742L45.29 39.0621L47.4511 41.1469Z" fill="#6FCF97"/>
<path d="M43.3988 37.2435L44.5869 36.0555L35.872 27.6555L34.684 28.8434L43.3988 37.2435Z" fill="#6FCF97"/>
<path d="M45.0073 51.9599C45.1005 51.899 45.189 51.8278 45.271 51.7458L45.9835 51.0333C46.6323 50.3844 46.6229 49.3296 45.9624 48.6926L2.54945 6.84786L1.35913 8.03819L44.7721 49.8829C45.349 50.4395 45.429 51.3149 45.0073 51.9599Z" fill="#D80029"/>
<path d="M41.6915 46.9067L42.8795 45.7186L40.7184 43.6338L39.5304 44.8218L41.6915 46.9067Z" fill="#6FCF97"/>
<path d="M37.6391 43.0033L38.8271 41.8152L30.1124 33.4152L28.9244 34.6032L37.6391 43.0033Z" fill="#6FCF97"/>
<path d="M17.6646 18.536L18.5359 17.6647L20.0002 16.2004L13.6936 9.65754L12.2294 11.1219L11.1218 12.2295L9.65746 13.6938L16.2003 20.0003L17.6646 18.536Z" fill="#FFD600"/>
<path d="M17.6646 18.536L18.5359 17.6647L20.0002 16.2004L13.6936 9.65754L12.2294 11.1219L11.1218 12.2295L17.6646 18.536Z" fill="#FF9911"/>
<path d="M21.9573 14.2433L23.4218 12.7789L16.8789 6.47242L15.4145 7.93676L21.9573 14.2433Z" fill="#FFD600"/>
<path d="M7.93679 15.4145L6.47246 16.8787L12.7788 23.4215L14.2433 21.9573L7.93679 15.4145Z" fill="#FFD600"/>
<path d="M44.0922 52.9999C44.746 53.0058 45.3606 52.7545 45.823 52.2921L46.5355 51.5796C46.9977 51.1174 47.2473 50.5033 47.2433 49.8488C47.2374 49.195 46.9751 48.5849 46.5043 48.1307L43.9895 45.7068L43.9905 45.7058L40.7117 42.5426L40.7093 42.545L17.3089 19.9901L19.9904 17.3086L32.3247 30.1052L41.8025 39.9383L42.5454 40.709L42.5431 40.7114L45.7062 43.9902L45.7072 43.9892L48.1314 46.5041C48.5853 46.9747 49.1953 47.2371 49.8491 47.243C50.5029 47.2489 51.1175 46.9974 51.5799 46.5351L52.2925 45.8225C52.7547 45.3602 53.0071 44.741 53.0002 44.0917C52.9943 43.4379 52.732 42.8279 52.2611 42.3737L49.7464 39.9498L49.7475 39.9487L46.4685 36.7856L46.4661 36.788L45.6954 36.045L38.504 29.1135L23.0657 14.2331L24.5302 12.7688L28.4429 8.85609L20.9202 1.33339L16.8692 5.38437L15.4048 6.84881L8.2995 -1.95394e-06L5.75736 2.54214L12.606 9.64746L9.64769 12.6056L2.54237 5.75703L0.000224704 8.29917L6.84883 15.4045L6.66582 15.5875L1.39582 20.8575L8.91852 28.3802L13.7301 23.5686L14.2331 23.0656L30.8954 40.3522L36.0454 45.6953L36.7883 46.4661L36.7859 46.4685L39.9491 49.7472L39.9501 49.7462L42.3742 52.2612C42.8283 52.7317 43.4384 52.9941 44.0922 52.9999ZM38.9646 46.486L40.7293 44.7213L41.773 45.7274L39.9707 47.5297L38.9646 46.486ZM32.8342 40.1257L33.792 39.1679L32.694 38.0699L31.7564 39.0076L28.7439 35.8822L30.1254 34.5007L37.7219 41.8229L36.066 43.4788L32.8342 40.1257ZM14.5883 17.3678L10.7661 13.6835L11.676 12.7736L17.0026 18.1003L16.1906 18.9122L14.5883 17.3678ZM13.6839 10.7659L18.9126 16.1904L18.1006 17.0024L12.774 11.6758L13.6839 10.7659ZM36.5495 29.3865L43.4789 36.0656L41.823 37.7216L34.5008 30.1251L35.8823 28.7435L36.5495 29.3865ZM47.53 39.9704L45.7277 41.7727L44.7217 40.7289L46.4863 38.9643L47.53 39.9704ZM51.1833 43.4917C51.3515 43.654 51.4453 43.872 51.4474 44.1058C51.449 44.3431 51.3596 44.5592 51.1944 44.7245L50.4818 45.4371C50.3165 45.6024 50.0968 45.6922 49.863 45.6901C49.6293 45.6879 49.4112 45.5943 49.2491 45.4263L46.8054 42.891L48.6482 41.0482L51.1833 43.4917ZM45.3679 37.8864L43.6437 39.6106L42.9008 38.8399L44.5973 37.1435L45.3679 37.8864ZM16.523 7.92662L16.889 7.56059L22.3136 12.7892L21.9475 13.1552L20.4212 11.684L16.523 7.92662ZM20.9203 3.52947L26.2469 8.85609L23.412 11.691L17.9874 6.46228L20.9203 3.52947ZM7.93347 2.56222L8.31948 2.17621L14.3065 7.94701L21.9675 15.3313L32.0386 25.0386L31.3544 25.7227L32.4524 26.8207L33.1568 26.1164L34.7641 27.6656L33.4229 29.0068L17.9654 12.9701L13.7042 8.54916L7.93347 2.56222ZM7.92684 16.5228L10.5411 19.235L13.1554 21.9473L12.7894 22.3133L7.56071 16.8888L7.92684 16.5228ZM3.59222 20.8575L6.46261 17.9871L11.6913 23.4118L8.91884 26.1841L3.59222 20.8575ZM15.3316 21.9674L11.6394 18.1369L7.94724 14.3064L2.17644 8.31936L2.56245 7.93335L8.54949 13.7041L16.2106 21.0886L29.0071 33.4229L27.666 34.764L15.3316 21.9674ZM37.1439 44.5969L38.8403 42.9005L39.6111 43.6434L37.8868 45.3677L37.1439 44.5969ZM43.4922 51.1832L41.0485 48.6479L42.8912 46.8052L45.4263 49.2487C45.5945 49.411 45.6883 49.629 45.6904 49.8628C45.6904 49.8655 45.6904 49.8681 45.6904 49.8708C45.6904 50.1016 45.6007 50.3181 45.4374 50.4816L44.7249 51.1941C44.5595 51.3593 44.3399 51.4491 44.106 51.4471C43.8724 51.445 43.6543 51.3512 43.4922 51.1832Z" fill="#212121"/>
<path d="M50.0541 43.1825L48.9561 44.2806L49.698 45.0225L50.7961 43.9245L50.0541 43.1825Z" fill="white"/>
<path d="M48.6132 41.7515L47.5151 42.8495L48.6422 43.9766L49.7403 42.8785L48.6132 41.7515Z" fill="white"/>
<path d="M8.97321 25.0589L10.0713 23.9608L8.88332 22.7728L7.78524 23.8709L8.97321 25.0589Z" fill="white"/>
<path d="M7.38751 23.4735L8.4856 22.3754L5.89782 19.7877L4.79973 20.8857L7.38751 23.4735Z" fill="white"/>
<path d="M22.1948 9.66694L23.3828 10.855L24.4809 9.7569L23.2929 8.56886L22.1948 9.66694Z" fill="white"/>
<path d="M21.7996 9.27003L22.8977 8.17194L20.3099 5.58417L19.2118 6.68226L21.7996 9.27003Z" fill="white"/>
<path d="M44.1769 50.8382L45.275 49.7401L44.5331 48.9982L43.435 50.0963L44.1769 50.8382Z" fill="white"/>
<path d="M43.121 49.793L44.2191 48.6949L43.0921 47.568L41.994 48.666L43.121 49.793Z" fill="white"/>
</g>
<defs>
<clipPath id="clip0">
<rect width="53" height="53" fill="white" transform="translate(53) rotate(90)"/>
</clipPath>
</defs>
</svg>
