<svg width="22" height="29" viewBox="0 0 22 29" fill="none" xmlns="http://www.w3.org/2000/svg">
<path d="M7.24117 15.2014C7.3209 16.161 7.40633 17.1265 7.48606 18.0861C6.95072 18.2223 6.41537 18.3645 5.88003 18.5007C6.13631 19.0338 6.39259 19.5728 6.64887 20.1059C5.57819 20.8701 4.50181 21.6401 3.42542 22.4279C2.58824 23.0321 1.75675 23.6422 0.936646 24.2464C1.42073 24.8446 2.14971 25.6383 3.16914 26.3965C3.34569 26.5268 3.98355 26.9889 4.94033 27.4805C5.47568 27.753 7.04184 28.5052 8.87568 28.8132C13.8134 29.6366 17.8911 26.7519 18.2499 26.4913C19.5655 25.5317 20.4596 24.4833 21.0063 23.7547C19.9812 23.3993 18.9561 23.0439 17.9253 22.6826C16.6097 22.2206 15.2998 21.7586 13.9956 21.2965C14.1779 20.9885 14.3658 20.6746 14.548 20.3666C14.1551 20.2303 13.7678 20.0882 13.3748 19.9519C13.6311 19.407 13.8874 18.862 14.1437 18.3171C11.8485 17.2805 9.5477 16.2439 7.24117 15.2014Z" fill="#323835"/>
<path d="M7.52014 14.4314C7.7992 16.0011 8.07257 17.5767 8.35163 19.1464C9.49066 20.3548 10.6354 21.5631 11.7744 22.7715C12.3098 21.1781 12.8451 19.5847 13.3804 17.9914C12.2072 17.7663 11.034 17.5412 9.86654 17.3161C9.66152 16.0544 9.45649 14.7928 9.25147 13.5311C8.67056 13.8332 8.09535 14.1353 7.52014 14.4314Z" fill="white"/>
<path d="M15.8067 5.89581C16.2111 6.90278 16.6154 7.90975 17.0255 8.91672C17.6918 9.68675 18.3638 10.4568 19.0302 11.2268C18.5461 11.8369 18.062 12.447 17.5779 13.0571C17.7146 13.3059 17.9253 13.7561 17.9766 14.3721C18.0335 15.0296 17.8911 15.5449 17.7943 15.8174C18.1531 16.5223 18.5119 17.2272 18.8764 17.932C18.0563 18.4651 17.2305 19.0042 16.4104 19.5373C14.1152 19.0042 11.8258 18.4651 9.53066 17.932C9.50218 17.6655 9.29716 15.7996 9.0124 15.1185C8.99531 15.0829 8.94406 14.9644 8.85293 14.8282C8.6593 14.5617 8.26634 14.1885 8.02145 14.301C7.79364 14.4017 7.77655 14.8815 7.76516 15.1185C7.74808 15.539 7.86198 15.6575 7.76516 15.8174C7.61139 16.0721 7.133 16.1017 6.79129 15.9596C6.32429 15.77 6.17622 15.2843 6.14205 15.1895C5.99967 14.7275 6.14205 14.3366 6.18761 14.23C5.59531 13.6376 4.99732 13.0453 4.40503 12.447C4.64423 11.1676 4.87773 9.89407 5.11692 8.61463C8.67639 7.70243 12.2415 6.79616 15.8067 5.89581Z" fill="#2F2F2F"/>
<path d="M15.67 7.00952C15.9262 7.80917 16.1768 8.61475 16.4331 9.4144C17.0197 10.0186 17.6063 10.6168 18.1929 11.221C17.5551 11.606 16.9115 11.991 16.2737 12.3761C16.342 12.767 16.4103 13.1639 16.4844 13.5548C15.6927 13.8984 14.8954 14.2419 14.1038 14.5914C13.4147 14.6743 12.7256 14.7513 12.0365 14.8342C11.615 14.2893 11.1936 13.7444 10.7721 13.1935C10.419 12.1214 10.0603 11.0433 9.70715 9.97119C10.009 9.42032 10.3108 8.86353 10.607 8.31266C12.2927 7.87433 13.9842 7.44193 15.67 7.00952Z" fill="white"/>
<path d="M14.0981 15.3318C15.1176 15.545 15.7839 15.3969 16.2167 15.2133C16.4388 15.1185 16.7806 14.929 16.8945 15.0474C16.9913 15.1541 16.8774 15.468 16.7464 15.6279C16.2338 16.2499 14.4911 15.5095 14.0981 15.3318Z" fill="white"/>
<path d="M8.68194 11.4105C8.79015 11.2091 8.65916 10.8537 8.44844 10.6878C7.93588 10.2732 6.66017 10.7411 6.43806 11.5289C6.34693 11.8606 6.45514 12.1805 6.55196 12.4648C6.626 12.684 6.79116 13.1342 7.22399 13.4244C7.40054 13.5429 7.62265 13.691 7.89601 13.6673C8.10673 13.6436 8.20355 13.5369 8.35732 13.5962C8.50539 13.6554 8.50539 13.7916 8.65916 13.9575C8.8528 14.1648 9.22298 14.3366 9.39953 14.2004C9.5533 14.0819 9.56469 13.7087 9.42231 13.454C9.16603 12.9861 8.51678 13.0868 8.43705 12.7195C8.39149 12.5122 8.56804 12.3286 8.44844 12.1568C8.3801 12.0561 8.27189 12.0324 8.23772 12.0265C8.027 11.9732 7.78211 12.1153 7.70807 12.3049C7.59417 12.5774 7.86754 12.8617 7.78781 12.9328C7.71946 12.992 7.40623 12.8321 7.31511 12.5596C7.22968 12.3167 7.3265 12.0324 7.48596 11.8488C7.87323 11.4223 8.51109 11.7303 8.68194 11.4105Z" fill="white"/>
<path d="M11.4613 10.0896C11.6606 9.7757 12.0479 9.25444 12.7085 8.91089C13.3065 8.59695 13.876 8.62065 15.0208 8.66803C15.3966 8.6858 15.6472 8.71542 15.7611 8.91089C15.9377 9.21298 15.6415 9.69277 15.6017 9.752C15.1916 9.62169 14.6221 9.48545 13.9387 9.48545C12.8111 9.48545 11.9454 9.84085 11.4613 10.0896Z" fill="#2F2F2F"/>
<path d="M13.2722 10.5931C13.3861 10.5339 13.5513 10.4569 13.7563 10.3858C14.2632 10.2081 14.7188 10.0422 15.0434 10.2614C15.2883 10.4273 15.425 10.7708 15.3396 10.8834C15.2484 10.9959 14.9409 10.7708 14.4112 10.6464C13.967 10.5398 13.5684 10.5576 13.2722 10.5931Z" fill="#2F2F2F"/>
<path d="M6.96206 7.19309L6.85954 7.21678C6.60896 7.28194 6.05653 7.4241 5.34464 7.63734C5.06557 7.72027 4.82638 7.79727 4.64983 7.85058V7.84466C4.66122 7.83873 4.6783 7.83281 4.68969 7.82689C4.63274 7.66103 4.61566 7.51887 4.60427 7.4241C4.58718 7.26417 4.60996 7.21086 4.61566 7.19309C4.66691 7.05685 4.80929 7.01539 4.87763 6.99169C5.32755 6.85546 5.94262 6.63037 6.47227 6.65999C6.53492 6.66591 6.64313 6.67183 6.73995 6.75476C6.75703 6.76661 6.81398 6.81992 6.88232 6.968C6.9051 7.02131 6.93358 7.09832 6.96206 7.19309Z" fill="#323835"/>
<path d="M9.86653 6.48234C8.99517 6.7015 8.31175 6.85551 7.21259 7.12798C7.18981 7.03913 7.17842 6.96213 7.16703 6.9029C7.14425 6.71927 7.16134 6.66004 7.16703 6.64227C7.21829 6.48234 7.38344 6.42311 7.46318 6.39941C7.97574 6.21579 8.68194 5.92555 9.28562 5.93147C9.35966 5.93147 9.48495 5.93739 9.59885 6.02624C9.62163 6.04401 9.68998 6.09732 9.76971 6.25725C9.80388 6.31056 9.83805 6.38757 9.86653 6.48234Z" fill="#323835"/>
<path d="M12.6402 5.72411C11.4784 6.02621 11.4214 6.08544 10.0888 6.42899C10.066 6.33422 10.0489 6.25129 10.0432 6.19206C10.0147 5.99659 10.0318 5.93736 10.0375 5.91366C10.0888 5.74781 10.2482 5.6945 10.3223 5.66488C10.8177 5.48718 11.5012 5.19694 12.0935 5.21471C12.1675 5.21471 12.2871 5.22656 12.401 5.32133C12.4238 5.3391 12.4864 5.39833 12.5719 5.57011C12.5946 5.61157 12.6174 5.65896 12.6402 5.72411Z" fill="#323835"/>
<path d="M15.3169 5.11408C14.6391 5.25032 13.8133 5.42802 12.8793 5.66495C12.8566 5.59387 12.8395 5.52872 12.8281 5.47541C12.7882 5.28586 12.7996 5.2207 12.8053 5.20293C12.8395 5.03708 12.9875 4.97192 13.0502 4.94231C13.5058 4.74091 14.1266 4.4329 14.6847 4.42105C14.753 4.42105 14.8669 4.42105 14.9808 4.51582C14.9979 4.53359 15.0663 4.5869 15.1631 4.75276C15.2086 4.82976 15.2656 4.95415 15.3169 5.11408Z" fill="#323835"/>
<path d="M15.4707 2.60837C15.4991 2.88084 15.4536 3.11185 15.408 3.25993C15.5333 3.85227 15.6586 4.43868 15.7782 5.03101C15.67 5.04878 15.5561 5.07247 15.4365 5.09617C15.4137 4.9777 15.3738 4.84147 15.3055 4.69931C15.2486 4.58676 15.1688 4.42091 15.0207 4.31429C14.8784 4.21359 14.7417 4.22544 14.6563 4.23728C14.2576 4.27875 13.5799 4.38537 12.9477 4.74077C12.8851 4.77631 12.7655 4.84739 12.7142 5.00732C12.6687 5.13763 12.6857 5.26202 12.7028 5.38641C12.7085 5.41603 12.7142 5.45749 12.7199 5.49896C12.6687 5.38641 12.6003 5.22056 12.4579 5.11986C12.3156 5.01324 12.1675 5.01917 12.0764 5.02509C11.6549 5.04878 10.9259 5.12578 10.2254 5.45749C10.1514 5.49303 10.0261 5.55819 9.95777 5.7122C9.90082 5.83659 9.90651 5.9669 9.9122 6.09721C9.9122 6.12091 9.9179 6.15052 9.9179 6.18014C9.87234 6.07352 9.7983 5.92544 9.66162 5.83659C9.51355 5.73589 9.36547 5.74774 9.27435 5.75366C8.84152 5.7892 8.09545 5.87805 7.37217 6.20976C7.29813 6.2453 7.16715 6.31045 7.09311 6.45854C7.03046 6.58293 7.03616 6.70732 7.04185 6.82578C7.04185 6.90279 7.05324 7.02125 7.09311 7.16341L7.07602 7.16934C7.06463 7.09826 7.04755 7.02125 7.01338 6.93833C6.97351 6.84355 6.92226 6.69547 6.79127 6.6007C6.66597 6.51185 6.53498 6.51185 6.46095 6.51185C6.08507 6.52369 5.43582 6.56516 4.80366 6.82578C4.74102 6.84948 4.62142 6.90279 4.55308 7.0331C4.50751 7.12195 4.49612 7.2108 4.49612 7.29373C4.41639 6.99164 4.34235 6.68955 4.26832 6.38746C4.21137 6.26899 4.12024 6.08536 4.01204 5.8662C3.90383 5.63519 3.80701 5.42788 3.78993 5.38049C3.59629 4.93032 3.7045 4.21359 3.82979 3.82857C4.01773 3.26586 4.45056 2.78014 7.58859 1.08015C7.99294 0.860983 8.32326 0.683283 8.55676 0.564816C8.93264 0.576663 9.50785 0.594433 10.2084 0.588509C12.8224 0.576663 14.2576 0.321959 14.7816 1.03868C14.9638 1.28746 15.2599 1.9568 15.3169 2.09896C15.3909 2.25297 15.4479 2.40105 15.4707 2.60837Z" fill="#323835"/>
<path d="M3.84569 5.84254C3.84 5.83069 3.83431 5.81884 3.82861 5.80699C3.82291 5.78922 3.81722 5.77146 3.81152 5.75368C4.51772 5.57006 5.67384 5.26797 7.11471 4.91257C8.9998 4.44463 9.90533 4.23731 12.0467 3.71013C12.844 3.51466 14.0571 3.21257 15.5492 2.83348C15.5549 2.85125 15.5549 2.8631 15.5606 2.88087C15.5663 2.89864 15.5663 2.91641 15.5663 2.93418C11.6594 3.9056 7.75256 4.87111 3.84569 5.84254Z" fill="white"/>
<path d="M4.10302 6.31639C4.09163 6.30455 4.08024 6.28678 4.06885 6.27493C4.86047 6.06762 5.99381 5.77145 7.36064 5.42789C9.12613 4.98364 10.0089 4.7704 12.1787 4.23138C12.9476 4.04183 14.1208 3.74566 15.573 3.37842C15.5673 3.39026 15.5559 3.40211 15.5503 3.41988C15.5389 3.43765 15.5275 3.45542 15.5161 3.46727C11.7174 4.415 7.91307 5.36274 4.10302 6.31639Z" fill="white"/>
<path d="M4.21142 6.44678C4.20003 6.42901 4.18864 6.41716 4.17725 6.39939C4.97457 6.19207 6.07942 5.90183 7.4007 5.57012C9.16619 5.12587 10.0489 4.91263 12.2017 4.37953C13.0446 4.16629 14.1722 3.8879 15.5049 3.54434C15.5106 3.56804 15.5106 3.58581 15.5163 3.6095C11.7518 4.55131 7.9816 5.49904 4.21142 6.44678Z" fill="white"/>
<path d="M15.4422 5.09039C15.4194 4.97192 15.3796 4.83568 15.3112 4.69352C15.2543 4.58098 15.1745 4.41513 15.0265 4.30851C14.8841 4.20781 14.7474 4.21966 14.662 4.2315C14.2633 4.27297 13.5856 4.37959 12.9534 4.73499C12.8908 4.77053 12.7712 4.84161 12.7199 5.00154C12.6744 5.13185 12.6914 5.25624 12.7085 5.38063C12.7142 5.41025 12.7199 5.45171 12.7256 5.49317C12.6744 5.38063 12.606 5.21478 12.4636 5.11408C12.3213 5.00746 12.1732 5.01338 12.0821 5.01931C11.6606 5.043 10.9316 5.12 10.2311 5.45171C10.1571 5.48725 10.0318 5.55241 9.96347 5.70641C9.90652 5.8308 9.91222 5.96112 9.91791 6.09143C9.91791 6.11512 9.92361 6.14474 9.92361 6.17436C9.87805 6.06774 9.80401 5.91965 9.66733 5.8308C9.51925 5.73011 9.37118 5.74195 9.28006 5.74788C8.84722 5.78342 8.10116 5.87227 7.37788 6.20397C7.30384 6.23951 7.17285 6.30467 7.09882 6.45276C7.03617 6.57715 7.04187 6.70153 7.04756 6.82C7.04756 6.897 7.05895 7.01547 7.09882 7.15763L7.08173 7.16356C7.07034 7.09248 7.05326 7.01547 7.01908 6.93254C6.97922 6.83777 6.92796 6.68969 6.79697 6.59492C6.67168 6.50607 6.54069 6.50607 6.46666 6.50607C6.09078 6.51791 5.44153 6.55937 4.80937 6.82C4.74672 6.84369 4.62712 6.897 4.55878 7.02732C4.51322 7.11617 4.50183 7.20502 4.50183 7.28794C4.54739 7.47157 4.59865 7.66112 4.64421 7.84474C4.6556 7.83882 4.67269 7.83289 4.68408 7.82697C4.62712 7.66112 4.61004 7.51896 4.59865 7.42418C4.58156 7.26425 4.60434 7.21094 4.61004 7.19317C4.66129 7.05694 4.80367 7.01547 4.87202 6.99178C5.32193 6.85554 5.93701 6.63046 6.46666 6.66007C6.5293 6.666 6.63751 6.67192 6.73433 6.75484C6.75141 6.76669 6.80836 6.82 6.87671 6.96808C6.89949 7.02139 6.93366 7.0984 6.95644 7.19317L6.85393 7.21687C6.60334 7.28202 6.05091 7.42418 5.33902 7.63742C5.05996 7.72035 4.82076 7.79735 4.64421 7.85066C4.66699 7.94544 4.68977 8.03429 4.71255 8.12906C5.05996 8.01652 5.56682 7.85659 6.1762 7.67889C6.56347 7.56634 6.8824 7.47749 7.17855 7.40049C7.19563 7.39457 7.21272 7.38864 7.2355 7.38864C7.92461 7.20502 8.50552 7.07471 9.49647 6.82593C9.64455 6.79039 9.78123 6.75485 9.91222 6.71931L10.0489 6.68377C10.0831 6.67784 10.1172 6.666 10.1457 6.66007C11.4214 6.32837 11.8372 6.18028 12.6971 5.96112C12.7427 5.94927 12.7826 5.93742 12.8281 5.92558L12.8452 5.91965C12.8737 5.91373 12.9079 5.90188 12.942 5.89596C13.0844 5.86042 13.2439 5.82488 13.4204 5.78342C14.4228 5.55241 15.26 5.38655 15.8238 5.28586C15.8067 5.20293 15.7896 5.12 15.7725 5.03708C15.6757 5.043 15.5618 5.06669 15.4422 5.09039ZM7.21272 7.12802C7.18994 7.03917 7.17855 6.96216 7.16716 6.90293C7.14438 6.7193 7.16146 6.66007 7.16716 6.6423C7.21842 6.48237 7.38357 6.42314 7.46331 6.39944C7.97587 6.21582 8.68207 5.92558 9.28575 5.9315C9.35979 5.9315 9.48508 5.93742 9.59898 6.02627C9.62176 6.04404 9.69011 6.09735 9.76984 6.25728C9.79831 6.31059 9.83248 6.3876 9.86096 6.48237C8.9953 6.70154 8.31758 6.85554 7.21272 7.12802ZM10.0888 6.42906C10.066 6.33429 10.0489 6.25136 10.0432 6.19213C10.0147 5.99666 10.0318 5.93742 10.0375 5.91373C10.0888 5.74788 10.2482 5.69457 10.3223 5.66495C10.8177 5.48725 11.5012 5.19701 12.0935 5.21478C12.1675 5.21478 12.2871 5.22662 12.401 5.3214C12.4238 5.33917 12.4864 5.3984 12.5718 5.57018C12.5946 5.61164 12.6174 5.66495 12.6402 5.72418C11.4784 6.02627 11.4214 6.08551 10.0888 6.42906ZM12.8794 5.66495C12.8566 5.59387 12.8395 5.52871 12.8281 5.4754C12.7883 5.28586 12.7997 5.2207 12.8054 5.20293C12.8395 5.03708 12.9876 4.97192 13.0502 4.9423C13.5059 4.74091 14.1266 4.4329 14.6847 4.42105C14.7531 4.42105 14.867 4.42105 14.9809 4.51582C14.998 4.53359 15.0663 4.5869 15.1631 4.75276C15.2087 4.82976 15.2656 4.95415 15.3169 5.11408C14.6392 5.25032 13.8134 5.42802 12.8794 5.66495Z" fill="white"/>
<path d="M15.8352 5.27402C15.9092 5.61757 15.9776 5.96113 16.0516 6.30468C13.4091 7.35904 10.3621 8.27715 6.94506 8.81618C6.27303 8.9228 5.6124 9.01165 4.96315 9.08273C4.88342 8.76287 4.79799 8.44301 4.71826 8.12907C5.06567 8.01653 5.57253 7.8566 6.18191 7.6789C6.56918 7.56635 6.88811 7.4775 7.18426 7.4005C7.20134 7.39458 7.21843 7.38865 7.24121 7.38865C7.93032 7.20503 8.51123 7.07472 9.50218 6.82593C9.65026 6.79039 9.78694 6.75486 9.91793 6.71932L10.0546 6.68377C10.0888 6.67785 10.123 6.66601 10.1514 6.66008C11.4271 6.32837 11.8429 6.18029 12.7029 5.96113C12.7484 5.94928 12.7883 5.93743 12.8338 5.92559L12.8509 5.91966C12.8794 5.91374 12.9136 5.90189 12.9477 5.89597C13.0901 5.86043 13.2496 5.82489 13.4261 5.78343C14.4399 5.54057 15.2714 5.38064 15.8352 5.27402Z" fill="#323835"/>
<path d="M6.75131 7.03323L4.7694 7.35901C4.76371 7.35901 4.75231 7.35309 4.75231 7.34717L4.73523 7.2287C4.73523 7.22278 4.74093 7.21093 4.74662 7.21093L6.72853 6.88515C6.73423 6.88515 6.74562 6.89107 6.74562 6.89699L6.7627 7.01546C6.7684 7.02138 6.7627 7.03323 6.75131 7.03323Z" fill="white"/>
<path d="M12.3439 5.58779L10.2709 6.12682C10.2652 6.12682 10.2538 6.12682 10.2538 6.11497L10.2253 6.00243C10.2253 5.99651 10.2253 5.98466 10.2367 5.98466L12.3098 5.44563C12.3155 5.44563 12.3268 5.44563 12.3268 5.45748L12.3553 5.57002C12.3553 5.57595 12.3496 5.58779 12.3439 5.58779Z" fill="white"/>
<path d="M6.43816 2.875C6.35843 3.18893 6.43247 3.57395 6.71722 3.76942C7.0988 4.03597 7.74235 3.88197 8.14101 3.66873C8.65357 3.39033 8.68774 3.04085 9.07501 2.63806C9.39964 2.30043 9.99763 1.89172 11.2107 1.7081C11.0057 1.58371 10.6355 1.40009 10.1286 1.31716C8.60801 1.08022 6.68875 1.90949 6.43816 2.875Z" fill="white"/>
</svg>
