<svg width="30" height="30" viewBox="0 0 20 20" fill="none" xmlns="http://www.w3.org/2000/svg">
<path fill-rule="evenodd" clip-rule="evenodd" d="M10 1.66667C5.39765 1.66667 1.66669 5.39763 1.66669 10C1.66669 14.6024 5.39765 18.3333 10 18.3333C14.6024 18.3333 18.3334 14.6024 18.3334 10C18.3334 5.39763 14.6024 1.66667 10 1.66667ZM10 2.87312C13.9361 2.87312 17.1269 6.06394 17.1269 10C17.1269 13.9361 13.9361 17.1269 10 17.1269C6.06395 17.1269 2.87314 13.9361 2.87314 10C2.87314 6.06394 6.06395 2.87312 10 2.87312ZM12.507 6.73718L8.41371 8.01817C8.22502 8.07722 8.07724 8.225 8.01819 8.4137L6.7372 12.507C6.59178 12.9716 7.02839 13.4082 7.49305 13.2628L11.5863 11.9818C11.775 11.9228 11.9228 11.775 11.9819 11.5863L13.2628 7.49303C13.4083 7.02837 12.9717 6.59176 12.507 6.73718ZM11.7671 8.23214L10.9241 10.9241L8.23216 11.767L9.07506 9.07505L11.7671 8.23214Z" fill="white"/>
</svg>
