<svg width="60" height="40" viewBox="0 0 15 25" fill="none" xmlns="http://www.w3.org/2000/svg">
<path d="M0 0H15V25L7.5 20L0 25V0Z" fill="#6FCF97"/>
<path fill-rule="evenodd" clip-rule="evenodd" d="M10.5741 7.42589C10.7531 7.60488 10.7531 7.89508 10.5741 8.07407L5.07413 13.5741C4.89514 13.7531 4.60494 13.7531 4.42595 13.5741C4.24696 13.3951 4.24696 13.1049 4.42595 12.9259L9.92595 7.42589C10.1049 7.2469 10.3951 7.2469 10.5741 7.42589Z" fill="white"/>
<path fill-rule="evenodd" clip-rule="evenodd" d="M5.43754 10.0416C6.3235 10.0416 7.04171 9.32344 7.04171 8.43748C7.04171 7.55152 6.3235 6.83331 5.43754 6.83331C4.55158 6.83331 3.83337 7.55152 3.83337 8.43748C3.83337 9.32344 4.55158 10.0416 5.43754 10.0416ZM5.43754 9.12498C5.81724 9.12498 6.12504 8.81718 6.12504 8.43748C6.12504 8.05778 5.81724 7.74998 5.43754 7.74998C5.05784 7.74998 4.75004 8.05778 4.75004 8.43748C4.75004 8.81718 5.05784 9.12498 5.43754 9.12498Z" fill="white"/>
<path fill-rule="evenodd" clip-rule="evenodd" d="M9.56254 14.1666C10.4485 14.1666 11.1667 13.4484 11.1667 12.5625C11.1667 11.6765 10.4485 10.9583 9.56254 10.9583C8.67658 10.9583 7.95837 11.6765 7.95837 12.5625C7.95837 13.4484 8.67658 14.1666 9.56254 14.1666ZM9.56254 13.25C9.94224 13.25 10.25 12.9422 10.25 12.5625C10.25 12.1828 9.94224 11.875 9.56254 11.875C9.18284 11.875 8.87504 12.1828 8.87504 12.5625C8.87504 12.9422 9.18284 13.25 9.56254 13.25Z" fill="white"/>
</svg>
