<svg width="20" height="20" viewBox="0 0 16 16" fill="none" xmlns="http://www.w3.org/2000/svg">
<path fill-rule="evenodd" clip-rule="evenodd" d="M8.66671 5.33334C9.0349 5.33334 9.33337 5.63182 9.33337 6.00001V8.66668C9.33337 9.03487 9.0349 9.33334 8.66671 9.33334H6.66671C6.29852 9.33334 6.00004 9.03487 6.00004 8.66668C6.00004 8.29849 6.29852 8.00001 6.66671 8.00001H8.00004V6.00001C8.00004 5.63182 8.29852 5.33334 8.66671 5.33334Z" fill="#440000"/>
<path fill-rule="evenodd" clip-rule="evenodd" d="M8.00004 2.66668C5.05452 2.66668 2.66671 5.05449 2.66671 8.00001C2.66671 10.9455 5.05452 13.3333 8.00004 13.3333C10.9456 13.3333 13.3334 10.9455 13.3334 8.00001C13.3334 5.05449 10.9456 2.66668 8.00004 2.66668ZM1.33337 8.00001C1.33337 4.31811 4.31814 1.33334 8.00004 1.33334C11.6819 1.33334 14.6667 4.31811 14.6667 8.00001C14.6667 11.6819 11.6819 14.6667 8.00004 14.6667C4.31814 14.6667 1.33337 11.6819 1.33337 8.00001Z" fill="#440000"/>
</svg>
